<svg width="40" height="40" viewBox="0 0 40 40" fill="none" xmlns="http://www.w3.org/2000/svg">
<path d="M30.0516 27.6947L37.1895 34.8325L34.8325 37.1895L27.6947 30.0517C25.1281 32.105 21.8733 33.3334 18.3333 33.3334C10.0533 33.3334 3.33331 26.6134 3.33331 18.3334C3.33331 10.0534 10.0533 3.33337 18.3333 3.33337C26.6133 3.33337 33.3333 10.0534 33.3333 18.3334C33.3333 21.8734 32.105 25.1282 30.0516 27.6947ZM26.7078 26.458C28.7458 24.3577 30 21.4927 30 18.3334C30 11.8875 24.7791 6.66671 18.3333 6.66671C11.8875 6.66671 6.66665 11.8875 6.66665 18.3334C6.66665 24.7792 11.8875 30 18.3333 30C21.4926 30 24.3576 28.7459 26.458 26.7079L26.7078 26.458Z" fill="white"/>
</svg>
